<?xml version="1.0" encoding="utf-8"?>
<!-- Generator: Adobe Illustrator 25.3.0, SVG Export Plug-In . SVG Version: 6.00 Build 0)  -->
<svg version="1.1" id="Camada_1" xmlns="http://www.w3.org/2000/svg" xmlns:xlink="http://www.w3.org/1999/xlink" x="0px" y="0px"
	 viewBox="0 0 219.5 278.5" style="enable-background:new 0 0 219.5 278.5;" xml:space="preserve">
<style type="text/css">
	.st0{fill-rule:evenodd;clip-rule:evenodd;fill:#94D2BD;}
	.st1{fill:none;stroke:#005F73;stroke-width:2.6081;stroke-linecap:round;stroke-miterlimit:10;}
	.st2{fill:none;stroke:#005F73;stroke-width:2.0864;stroke-linecap:round;stroke-miterlimit:10;}
	.st3{fill:#005F73;}
	.st4{font-family:'Billabong';}
	.st5{font-size:54.8035px;}
</style>
<g>
	<path class="st0" d="M118,225.6c-28.6-11.4-28.2-20.8-50.2-41.9C51.2,168,10.9,161.3,5.5,139.6S45.5,110.8,51,88.3
		c6.5-26.5-27-54.4-13.9-78.6s42.5,21.1,69.1,25.6s42.9-17.3,58.1,3.8c11,15.4,16.9-16.5,26.9-0.4c15.1,24.3-3.5,62.1-3.5,90.5
		c0.1,27.1,26.3,23.3,3.7,39.3C152.9,167.7,144,235.9,118,225.6z"/>
	<g>
		<path class="st1" d="M41.4,118.1c27.3-11.2,54.5-20.1,83.7-27.9c14.6-3.7,28.2-6.8,42.8-7.3c5.2,0,8.9,4.2,13.6,5.7
			c5.2,1.6,10.4,1.6,15.6,3.1c4.2,1,3.7,5.2,3.1,8.3c-0.5,1-1,2.1-1.6,3.7c-2.1,4.2-5.2,7.8-9.4,10.4c-16.2,9.9-31.8,17.2-48,25"/>
		<path class="st2" d="M195.1,96.6c0,0.6,8.8,13.4-71.3,44.3"/>
		<path class="st1" d="M157,97.7c10.1-4.2,28.9-7.1,28.9-7.1"/>
		<polyline class="st1" points="160,95.3 157.4,94.2 158.7,88.3 174.7,85.4 		"/>
		<path class="st1" d="M161.4,91.8c0.3-0.3,7.1-1.9,7.1-1.9"/>
		<line class="st1" x1="166" y1="87" x2="170.2" y2="93.7"/>
		<line class="st1" x1="172.4" y1="87" x2="176.4" y2="92.4"/>
		
			<rect x="80.2" y="114.8" transform="matrix(0.9701 -0.2425 0.2425 0.9701 -26.0699 23.6873)" class="st1" width="5.9" height="5.9"/>
		
			<rect x="90.1" y="112.3" transform="matrix(0.9701 -0.2425 0.2425 0.9701 -25.1729 26.0173)" class="st1" width="5.9" height="5.9"/>
		
			<rect x="100" y="109.8" transform="matrix(0.9701 -0.2425 0.2425 0.9701 -24.276 28.3474)" class="st1" width="5.9" height="5.9"/>
		
			<rect x="110" y="107.3" transform="matrix(0.9701 -0.2425 0.2425 0.9701 -23.379 30.6774)" class="st1" width="5.9" height="5.9"/>
		
			<rect x="119.9" y="104.9" transform="matrix(0.9701 -0.2425 0.2425 0.9701 -22.4821 33.0075)" class="st1" width="5.9" height="5.9"/>
		
			<rect x="129.8" y="102.4" transform="matrix(0.9701 -0.2425 0.2425 0.9701 -21.5851 35.3375)" class="st1" width="5.9" height="5.9"/>
		
			<rect x="139.7" y="99.9" transform="matrix(0.9701 -0.2425 0.2425 0.9701 -20.6881 37.6675)" class="st1" width="5.9" height="5.9"/>
		<text transform="matrix(1 0 0 1 25.3406 105.3367)" class="st3 st4 st5">Fly</text>
		<g>
			<text transform="matrix(1 0 0 1 126.1893 150.5828)" class="st3 st4 st5">Plus</text>
		</g>
	</g>
</g>
</svg>
