<svg id="Camada_2" data-name="Camada 2" xmlns="http://www.w3.org/2000/svg" viewBox="0 0 1587.95 1080"><defs><style>.cls-1,.cls-2,.cls-5,.cls-6{fill:none;}.cls-1,.cls-2{stroke:#005f73;}.cls-1,.cls-2,.cls-5,.cls-6,.cls-7{stroke-linecap:round;}.cls-1,.cls-2,.cls-5,.cls-6,.cls-7,.cls-8{stroke-miterlimit:10;}.cls-1,.cls-5,.cls-7{stroke-width:5px;}.cls-2,.cls-6{stroke-width:4px;}.cls-3,.cls-8{font-size:105.07px;font-family:Billabong;}.cls-3,.cls-4{fill:#005f73;}.cls-5,.cls-6,.cls-7,.cls-8{stroke:#fff;}.cls-7,.cls-8{fill:#fff;}</style></defs><path class="cls-1" d="M1278.75,559.17c52.41-21.52,104.41-38.52,160.41-53.52,28-7,54-13,82-14,10,0,17,8,26,11,10,3,20,3,30,6,8,2,7,10,6,16a48.75,48.75,0,0,0-3,7,49.39,49.39,0,0,1-18,20c-31,19-61,33-92,48" transform="translate(0 -2.4)"/><path class="cls-2" d="M1573.41,518c0,1.15,16.86,25.66-136.72,85" transform="translate(0 -2.4)"/><path class="cls-1" d="M1500.26,520.13c19.34-8,55.34-13.59,55.34-13.59" transform="translate(0 -2.4)"/><polyline class="cls-1" points="1506.2 513.13 1501.03 510.93 1503.61 499.54 1534.3 494.08"/><path class="cls-1" d="M1508.88,508.65c.57-.58,13.59-3.64,13.59-3.64" transform="translate(0 -2.4)"/><line class="cls-1" x1="1517.66" y1="497.04" x2="1525.71" y2="510.03"/><line class="cls-1" x1="1529.94" y1="497.04" x2="1537.46" y2="507.45"/><rect class="cls-1" x="1353.16" y="552.8" width="11.3" height="11.3" transform="translate(-94.87 343.83) rotate(-14.04)"/><rect class="cls-1" x="1372.17" y="548.05" width="11.3" height="11.3" transform="translate(-93.15 348.3) rotate(-14.04)"/><rect class="cls-1" x="1391.17" y="543.3" width="11.3" height="11.3" transform="translate(-91.43 352.76) rotate(-14.04)"/><rect class="cls-1" x="1410.17" y="538.54" width="11.3" height="11.3" transform="translate(-89.71 357.23) rotate(-14.04)"/><rect class="cls-1" x="1429.18" y="533.79" width="11.3" height="11.3" transform="translate(-87.99 361.7) rotate(-14.04)"/><rect class="cls-1" x="1448.18" y="529.04" width="11.3" height="11.3" transform="translate(-86.27 366.17) rotate(-14.04)"/><rect class="cls-1" x="1467.18" y="524.29" width="11.3" height="11.3" transform="translate(-84.55 370.63) rotate(-14.04)"/><text class="cls-3" transform="translate(1247.94 532.29)">Fly</text><text class="cls-3" transform="translate(1441.28 619.03)">Plus</text><rect class="cls-4" width="983.47" height="1080"/><path class="cls-5" d="M314.77,535.13c52.41-21.53,104.41-38.53,160.41-53.53,28-7,54-13,82-14,10,0,17,8,26,11,10,3,20,3,30,6,8,2,7,10,6,16a48.75,48.75,0,0,0-3,7,49.39,49.39,0,0,1-18,20c-31,19-61,33-92,47.95" transform="translate(0 -2.4)"/><path class="cls-6" d="M609.44,494c0,1.15,16.85,25.66-136.73,85" transform="translate(0 -2.4)"/><path class="cls-7" d="M536.28,496.09c19.34-8,55.34-13.6,55.34-13.6" transform="translate(0 -2.4)"/><polyline class="cls-5" points="542.22 489.09 537.05 486.88 539.63 475.49 570.32 470.03"/><path class="cls-7" d="M544.9,484.6c.57-.58,13.6-3.64,13.6-3.64" transform="translate(0 -2.4)"/><line class="cls-7" x1="553.68" y1="472.99" x2="561.73" y2="485.98"/><line class="cls-7" x1="565.96" y1="472.99" x2="573.48" y2="483.4"/><rect class="cls-5" x="389.19" y="528.75" width="11.3" height="11.3" transform="translate(-117.82 109.31) rotate(-14.04)"/><rect class="cls-5" x="408.19" y="524" width="11.3" height="11.3" transform="translate(-116.1 113.78) rotate(-14.04)"/><rect class="cls-5" x="427.19" y="519.25" width="11.3" height="11.3" transform="translate(-114.38 118.25) rotate(-14.04)"/><rect class="cls-5" x="446.19" y="514.5" width="11.3" height="11.3" transform="translate(-112.66 122.71) rotate(-14.04)"/><rect class="cls-5" x="465.2" y="509.75" width="11.3" height="11.3" transform="translate(-110.94 127.18) rotate(-14.04)"/><rect class="cls-5" x="484.2" y="504.99" width="11.3" height="11.3" transform="translate(-109.22 131.65) rotate(-14.04)"/><rect class="cls-5" x="503.2" y="500.24" width="11.3" height="11.3" transform="translate(-107.5 136.11) rotate(-14.04)"/><text class="cls-8" transform="translate(283.96 508.24)">Fly</text><text class="cls-8" transform="translate(477.3 594.98)">Plus</text></svg>