<svg id="Camada_1" data-name="Camada 1" xmlns="http://www.w3.org/2000/svg" viewBox="0 0 310.07338 115.91049"><defs><style>.cls-1,.cls-2{fill:none;stroke:#005f73;stroke-linecap:round;stroke-miterlimit:10;}.cls-1{stroke-width:5px;}.cls-2{stroke-width:4px;}</style></defs><path class="cls-1" d="M805.03018,551.84335C857.43689,530.314,909.43689,513.314,965.43689,498.314c28-7,54-13,82-14,10,0,17,8,26,11,10,3,20,3,30,6,8,2,7,10,6,16a48.75238,48.75238,0,0,0-3,7,49.38638,49.38638,0,0,1-18,20c-31,19-61,33-91.95744,47.95744" transform="translate(-802.53018 -481.81399)"/><path class="cls-2" d="M1099.69568,510.7032c0,1.14894,16.85107,25.65957-136.7234,85.02128" transform="translate(-802.53018 -481.81399)"/><path class="cls-1" d="M1026.54328,512.80335c19.34042-8.04256,55.34042-13.59575,55.34042-13.59575" transform="translate(-802.53018 -481.81399)"/><polyline class="cls-1" points="229.949 26.394 224.779 24.191 227.364 12.798 258.051 7.34"/><path class="cls-1" d="M1035.1603,501.314c.57447-.57447,13.59574-3.6383,13.59574-3.6383" transform="translate(-802.53018 -481.81399)"/><line class="cls-1" x1="241.41482" y1="10.29899" x2="249.46038" y2="23.28611"/><line class="cls-1" x1="253.69395" y1="10.29899" x2="261.21235" y2="20.70495"/><rect class="cls-1" x="879.44565" y="545.46527" width="11.29787" height="11.29787" transform="translate(-909.76829 -250.69212) rotate(-14.03624)"/><rect class="cls-1" x="898.44849" y="540.71456" width="11.29787" height="11.29787" transform="translate(-908.0487 -246.2251) rotate(-14.03624)"/><rect class="cls-1" x="917.45132" y="535.96385" width="11.29787" height="11.29787" transform="translate(-906.32911 -241.75808) rotate(-14.03624)"/><rect class="cls-1" x="936.45415" y="531.21314" width="11.29787" height="11.29787" transform="translate(-904.60951 -237.29106) rotate(-14.03624)"/><rect class="cls-1" x="955.45699" y="526.46244" width="11.29787" height="11.29787" transform="translate(-902.88992 -232.82405) rotate(-14.03624)"/><rect class="cls-1" x="974.45982" y="521.71173" width="11.29787" height="11.29787" transform="translate(-901.17033 -228.35703) rotate(-14.03624)"/><rect class="cls-1" x="993.46265" y="516.96102" width="11.29787" height="11.29787" transform="translate(-899.45073 -223.89001) rotate(-14.03624)"/></svg>