<?xml version="1.0" encoding="utf-8"?>
<!-- Generator: Adobe Illustrator 25.3.0, SVG Export Plug-In . SVG Version: 6.00 Build 0)  -->
<svg version="1.1" id="Camada_1" xmlns="http://www.w3.org/2000/svg" xmlns:xlink="http://www.w3.org/1999/xlink" x="0px" y="0px"
	 viewBox="0 0 268 327.9" style="enable-background:new 0 0 268 327.9;" xml:space="preserve">
<style type="text/css">
	.st0{fill:#005F73;}
	.st1{font-family:'Billabong';}
	.st2{font-size:57.44px;}
	.st3{fill:#272525;}
	.st4{font-family:'Poppins-BlackItalic';}
	.st5{font-size:22.03px;}
	.st6{font-size:41.41px;}
	.st7{fill:#94D2BD;}
	.st8{font-size:67.4px;}
	.st9{fill:none;stroke:#005F73;stroke-width:0.25;stroke-miterlimit:10;}
</style>
<text transform="matrix(1 0 0 1 68.1148 287.614)" class="st0 st1 st2">Fly</text>
<text transform="matrix(1 0 0 1 124.1548 284.7339)" class="st0 st1 st2">Plus</text>
<text transform="matrix(1 0 0 1 18.52 45.75)" class="st3 st4 st5">Voe com a</text>
<text transform="matrix(1 0 0 1 146.07 47.9)" class="st0 st1 st6">Fly</text>
<text transform="matrix(1 0 0 1 186.2 47.83)" class="st0 st1 st6">Plus</text>
<text transform="matrix(1 0 0 1 14.08 85.97)" class="st3 st4 st5">Preços imperdiveis</text>
<text transform="matrix(1 0 0 1 73.93 121.87)" class="st3 st4 st5">em até</text>
<text transform="matrix(1 0 0 1 70.7117 215.2446)" class="st7 st4 st8">10X</text>
<text transform="matrix(1 0 0 1 65.5302 215.2441)" class="st9 st4 st8">10X</text>
<text transform="matrix(1 0 0 1 68.7645 209.9675)" class="st3 st4 st8">10X</text>
</svg>
